<?xml version="1.0" encoding="utf-8" ?>
<svg baseProfile="tiny" height="100%" version="1.2" width="100%" xmlns="http://www.w3.org/2000/svg" xmlns:ev="http://www.w3.org/2001/xml-events" xmlns:xlink="http://www.w3.org/1999/xlink"><defs /><path d="M4.917645346930099,75.01417174653916 L3.6467705474881615,75.27666899612045 L3.385063302342161,74.0054504826599 L3.1656038297302143,72.93075319001991 L2.7413311106300995,70.7913789412407 L2.1416297816498435,67.58019940799893 L1.844170225142042,65.87358622479607 L1.5976029882679512,64.34712707636523 L1.1239669510336885,61.11515385093023 L0.7243949682188457,57.877580503616905 L0.5717971338552186,56.40294492780599 L0.4132602789275257,54.62057983949108 L0.1872662964819405,51.37756285574366 L0.0866110462462828,49.281545528965836 L0.04795794776115336,48.128790529142066 L0.02035508105821293,46.90277587322712 L5.950377527597084e-06,44.87992884386899 L0.0,44.5317716766841 L0.03802144993329115,41.63466675951526 L0.0988765442886308,39.7856774878631 L0.16450110788610672,38.387870157945855 L0.2203717713305693,37.40844521669234 L0.3841717947188439,35.12985445444838 L0.7047341320094063,31.879260476752727 L0.9016873675095045,30.259777923900806 L1.1328694297854902,28.617250572476394 L1.6617962535129855,25.375782362793952 L2.08069212116418,23.148639873083535 L2.2865854968447046,22.143182650726352 L2.5761460073260327,20.78832554673918 L3.0058834258545293,18.923358621297655 L3.1231260578585385,18.436833265544877 L3.8169031130301505,15.721160402970854 L4.352586724960171,13.770634645402325 L4.708103371066043,12.53857809275246 L5.033193837826428,11.447609843394096 L5.675230052054868,9.379326827838034 L5.751071715051699,9.14078988964588 L6.499083559144754,6.84577963466586 L6.703059359518031,6.235513069217268 L7.2742932818291095,4.556406413915505 L7.77626049118475,3.1113667362313677 L8.875793402382449,0.0 L10.014165253570201,0.4035578038604548 L11.984868398919563,1.108644925275712 L13.421246909187184,1.6284036956152352 L15.084299249596308,2.2420393519259285 L15.686274770200063,2.4679478026247033 L17.937842553565346,3.3311714761790743 L18.17052390005966,3.4223603036685812 L20.17912498046708,4.224992411097551 L21.22876792703535,4.658459931890251 L22.406975336753007,5.15706362119856 L24.25355644362257,5.96517363580795 L26.79082165481845,7.12772922106349 L27.240155309593817,7.340933437362466 L28.953082786212146,8.173247337027327 L30.18137134785122,8.792230745355466 L31.090683805384664,9.262676931968315 L33.07263559882739,10.322362088936579 L35.27514016849506,11.555973131938153 L35.91641108061315,11.92790086700115 L37.33088723952725,12.768931913872498 L38.70308057093661,13.61466927718245 L41.427265845613015,15.37542112056281 L44.092935292442775,17.20156436577551 L45.229504692786676,18.01568825624122 L46.7092529927176,19.111226190698915 L49.26388373847813,21.088353348473632 L50.83301571802625,22.359948381785802 L51.769392348685436,23.142900084482775 L52.64280826621753,23.889771431088842 L54.205725806226724,25.264595651527017 L56.15420112393753,27.042198641637796 L56.586894091330024,27.446785611075576 L57.86967533698552,28.669713657414825 L58.915376155235435,29.693096013579606 L59.55478461868495,30.330284089490984 L61.18292657015583,31.990179677243873 L62.83407291081208,33.72256394421392 L63.40631316241673,34.33435090095994 L64.44150712263763,35.45659941671282 L65.58783276223909,36.721373651466884 L67.73256121967954,39.13770742428768 L69.14828716814039,40.763656245795154 L69.85733518801594,41.584936175112176 L70.69483091084543,42.558436251040106 L69.79714552792116,43.33045284532526 L68.23901061512586,44.66552621721492 L67.99887762911386,44.87007489958098 L67.09589279356472,45.635694899273005 L66.18956807763,46.397371597660694 L65.76340616614391,46.752641905224095 L65.27855524921594,47.15443611590491 L63.450114765444624,48.65087544940073 L63.259679117457885,48.80473693250577 L61.602757889152045,50.126953463610235 L60.72495277403569,50.81322198561207 L59.729686164047514,51.57894262110388 L58.1441434404134,52.769352766943804 L55.917258815528065,54.38412652734229 L55.51610267366591,54.667668212815734 L53.96963981296902,55.73827783247955 L52.83818308954379,56.497937305216226 L51.98950884693606,57.0547040038047 L50.10388757361955,58.24992097893099 L47.328080006755236,59.92008461307433 L45.90767287449127,60.73438395437974 L44.49578164738975,61.51075229475802 L41.62183675786642,63.000146278975706 L39.59086155150206,63.980644348625475 L38.71366888374668,64.38956487622266 L37.4575138413093,64.96106913834936 L35.793716205905895,65.69341356174314 L33.165441004428715,66.79975144487872 L32.84739419282838,66.93018285027114 L30.99010615322253,67.66786375933887 L29.858104507074717,68.10136590361537 L28.788407286474932,68.49710425539223 L26.839566958764742,69.18778680776109 L23.79235345774392,70.20595206110225 L22.103387822470157,70.73611765866265 L20.706518127796524,71.15220001098402 L17.606744799927593,72.0319168149008 L14.471566376398323,72.85898800259709 L12.977577190289155,73.22986866301017 L11.2984482421806,73.62553353211516 L8.120427826225292,74.33507968845538 L5.991053014677982,74.79027889548951 Z" fill="none" stroke="black" /><path d="M27.134519751491993,36.303758863831476 L26.65229127938413,36.40042124352749 L26.265961508820872,36.510568786066806 L25.691428961543,36.72484771460037 L25.120158309808566,36.994710992958815 L24.43129214814275,37.39299636070246 L23.815687808135642,37.81701307642602 L23.221067375162065,38.29185985294515 L22.64810426622966,38.815446950464924 L22.099831213715316,39.38625029641397 L21.824670818712942,39.70324517690944 L21.296537878078333,40.37839142783789 L20.821910080671483,41.08191483261834 L20.40469805915938,41.810704296601145 L20.046661389823406,42.559846296150575 L19.848892950056822,43.058823850188766 L19.621994927369222,43.76853727953114 L19.460599283363766,44.470860332272515 L19.36862857933036,45.16468136398511 L19.347225945567917,45.84650147498697 L19.390709213245067,46.442153314089346 L19.49483708302207,47.01053660443673 L19.53591313753553,47.166719062936586 L19.704203555788155,47.65288391242367 L19.924040146951334,48.10233145218488 L20.021011650004233,48.26251221927236 L20.296644653717365,48.63695090454359 L20.615855230095367,48.96737249779081 L20.870358854647794,49.17481903829309 L21.246711134771243,49.413104711778544 L21.657305904574166,49.60034257208463 L21.931334663099154,49.69081627625359 L22.382019805991895,49.788284859695246 L22.84964357659031,49.82996113178446 L23.320965000927036,49.81788992220533 L23.831293649824918,49.748401986027055 L24.34411969458855,49.623168310866255 L24.53018708449556,49.564550126401656 L25.087308213564285,49.34757098805663 L25.632523978997966,49.075005494447375 L26.165367943664428,48.750731021724036 L26.244471305561852,48.697389040313944 L26.815381599871614,48.271094159193005 L27.358999543971606,47.794652754075784 L27.873927708245944,47.27050452946885 L28.361432133200367,46.70055620783252 L28.87752501305217,46.00393450703421 L29.32539950287333,45.29720708302397 L29.727489260575915,44.556805473007074 L30.080273031279454,43.784013510814106 L30.39225416135867,42.94298179760898 L30.61666645364826,42.16216682220373 L30.7756966606949,41.38822978351318 L30.866797351329417,40.62729114615446 L30.873557033381672,40.52805685585998 L30.88505216391267,39.87083635045482 L30.836117295796985,39.24986171982764 L30.773551245251173,38.87477395474559 L30.638427325783525,38.36292020814813 L30.45119084368762,37.89593720802873 L30.21958042468824,37.4900718426614 L29.95634731904554,37.15328543966842 L29.856406256870596,37.04894230390785 L29.55062190864478,36.788600452064074 L29.20707728686256,36.57710817493456 L29.096280795917274,36.52326861583289 L28.71410731981493,36.380989366683025 L28.308331440025178,36.292066376556505 L28.068798941653224,36.264822472233774 L27.60705007118469,36.25750994771637 Z" fill="none" stroke="black" /></svg>