<?xml version="1.0" encoding="utf-8" ?>
<svg baseProfile="tiny" height="100%" version="1.2" width="100%" xmlns="http://www.w3.org/2000/svg" xmlns:ev="http://www.w3.org/2001/xml-events" xmlns:xlink="http://www.w3.org/1999/xlink"><defs /><path d="M0.0,1.5326945217629357e-12 L80.9708080291748,1.5326945217629357e-12 L84.46133265964737,2.5166357854607644e-13 L87.95186472261285,0.0 L91.44239238965302,7.707860742482059e-13 L94.93292678653717,2.55418082188407e-12 L98.42345606365599,5.312777149548261e-12 L101.91398356527343,9.004436177244465e-12 L105.40451251009021,1.35934949898188e-11 L108.89504658084884,1.9058872150769155e-11 L112.3855758897337,2.5377961388464346e-11 L115.87610678460149,3.253189547579243e-11 L119.36663715005551,4.050530880005998e-11 L122.85716563590812,4.9261746238652534e-11 L126.3476956499597,5.878721154847083e-11 L129.8382241358133,6.906764944949276e-11 L133.32875634869512,8.005331437423734e-11 L136.81928458345405,9.172614726274522e-11 L140.3098155637659,1.0405987432896886e-10 L143.80034963452974,1.1704566833808974e-10 L147.29087857935295,1.3070286820413768e-10 L150.78140668887332,1.4499317059193835e-10 L154.27193596600065,1.5989385509933753e-10 L157.76247010911058,1.7534680800453273e-10 L161.25299749987866,1.9129940965947366e-10 L164.74352961032358,2.0777572872081332e-10 L168.23405407894245,2.2472017702825612e-10 L221.88624804230898,4.895592977971278e-10 L224.32373384412992,5.017962436209454e-10 L226.76122680040692,5.140261491184649e-10 L229.198711552761,5.262051067753385e-10 L231.63620509129518,5.383367821921019e-10 L234.07369155626137,5.504035712386278e-10 L236.5111786002626,5.624291096386119e-10 L268.52862702569126,7.202319305316244e-10 L268.5286270256419,10.000000000762602 L268.5286270255385,30.974938801126513 L268.5286270254115,56.76585187598964 L236.51117859998303,56.76585187583193 L226.51117859994073,56.76585187578266 L226.51117860006784,30.974938800919524 L236.5111786001101,30.974938800968772 L236.51117860021338,10.000000000604828 L234.07369155621208,10.00000000059282 L231.6362050912458,10.000000000580823 L229.1987115527115,10.000000000568809 L226.76122680035726,10.000000000556783 L224.32373384408027,10.000000000544746 L221.8862480422595,10.000000000532745 L221.88624804221016,20.000000000575984 L168.2340540788441,20.000000000311267 L168.23405407889345,10.000000000268031 L164.7435296102758,10.000000000251111 L161.25299749983222,10.000000000234573 L157.76247010906548,10.000000000218476 L154.271935965957,10.000000000202856 L150.7814066888311,10.000000000187665 L147.29087857931228,10.000000000172916 L143.80034963449071,10.000000000158645 L140.30981556372856,10.000000000144883 L136.81928458341835,10.000000000131632 L133.3287563486612,10.00000000011891 L129.8382241357811,10.000000000106732 L126.34769564992938,10.000000000095092 L122.85716563587971,10.000000000084025 L119.36663715002906,10.000000000073541 L115.87610678457702,10.000000000063652 L112.3855758897113,10.000000000054362 L108.89504658082856,10.000000000045691 L105.40451251007214,10.000000000037666 L101.91398356525761,10.000000000030331 L98.42345606364253,10.000000000023718 L94.93292678652614,10.000000000017849 L91.44239238964454,10.000000000012742 L87.951864722607,10.000000000008438 L84.46133265964419,10.000000000004958 L80.97080802917431,10.000000000002327 L0.0,10.000000000001533 Z" fill="none" stroke="black" /></svg>